<svg width="20" height="20" viewBox="0 0 20 20" fill="none" xmlns="http://www.w3.org/2000/svg">
<path d="M14.4559 7.54169L12.5059 13.825C12.0392 15.3167 9.94753 15.3417 9.45587 13.8584L8.87254 12.1334C8.7142 11.6584 8.3392 11.275 7.8642 11.125L6.13087 10.5417C4.65587 10.05 4.68087 7.9417 6.17254 7.4917L12.4559 5.53336C13.6892 5.15836 14.8475 6.31669 14.4559 7.54169Z" stroke="#1B1B1B" stroke-width="1.5" stroke-linecap="round" stroke-linejoin="round"/>
<path d="M7.49996 18.3333H12.5C16.6666 18.3333 18.3333 16.6667 18.3333 12.5V7.5C18.3333 3.33334 16.6666 1.66667 12.5 1.66667H7.49996C3.33329 1.66667 1.66663 3.33334 1.66663 7.5V12.5C1.66663 16.6667 3.33329 18.3333 7.49996 18.3333Z" stroke="#1B1B1B" stroke-width="1.5" stroke-linecap="round" stroke-linejoin="round"/>
</svg>
