<svg width="28" height="28" viewBox="0 0 28 28" fill="none" xmlns="http://www.w3.org/2000/svg">
<rect width="28" height="28" rx="14" fill="#87D333"/>
<path d="M11.9997 20.6668H15.9997C19.333 20.6668 20.6663 19.3335 20.6663 16.0002V12.0002C20.6663 8.66683 19.333 7.3335 15.9997 7.3335H11.9997C8.66634 7.3335 7.33301 8.66683 7.33301 12.0002V16.0002C7.33301 19.3335 8.66634 20.6668 11.9997 20.6668Z" stroke="#F7FBF1" stroke-width="1.5" stroke-linecap="round" stroke-linejoin="round"/>
<path d="M16.3333 18.3332C17.0667 18.3332 17.6667 17.7332 17.6667 16.9998V10.9998C17.6667 10.2665 17.0667 9.6665 16.3333 9.6665C15.6 9.6665 15 10.2665 15 10.9998V16.9998C15 17.7332 15.5933 18.3332 16.3333 18.3332Z" stroke="#F7FBF1" stroke-width="1.5" stroke-linecap="round" stroke-linejoin="round"/>
<path d="M11.6663 18.3335C12.3997 18.3335 12.9997 17.7335 12.9997 17.0002V14.6668C12.9997 13.9335 12.3997 13.3335 11.6663 13.3335C10.933 13.3335 10.333 13.9335 10.333 14.6668V17.0002C10.333 17.7335 10.9263 18.3335 11.6663 18.3335Z" stroke="#F7FBF1" stroke-width="1.5" stroke-linecap="round" stroke-linejoin="round"/>
</svg>
