<svg width="28" height="28" viewBox="0 0 28 28" fill="none" xmlns="http://www.w3.org/2000/svg">
<rect width="28" height="28" rx="14" fill="#F8F9FF"/>
<path d="M6.6416 10.2L13.9999 14.4583L21.3083 10.225" stroke="#3088EF" stroke-width="1.5" stroke-linecap="round" stroke-linejoin="round"/>
<path d="M14 22.0083V14.45" stroke="#3088EF" stroke-width="1.5" stroke-linecap="round" stroke-linejoin="round"/>
<path d="M12.2745 6.06658L7.82454 8.53324C6.81621 9.09158 5.99121 10.4916 5.99121 11.6416V16.3499C5.99121 17.4999 6.81621 18.8999 7.82454 19.4582L12.2745 21.9332C13.2245 22.4582 14.7829 22.4582 15.7329 21.9332L20.1829 19.4582C21.1912 18.8999 22.0162 17.4999 22.0162 16.3499V11.6416C22.0162 10.4916 21.1912 9.09158 20.1829 8.53324L15.7329 6.05824C14.7745 5.53324 13.2245 5.53324 12.2745 6.06658Z" stroke="#3088EF" stroke-width="1.5" stroke-linecap="round" stroke-linejoin="round"/>
</svg>
