<svg width="42" height="40" viewBox="0 0 42 40" fill="none" xmlns="http://www.w3.org/2000/svg">
<path d="M15.8314 16.6667C17.7439 16.6667 19.2942 15.1743 19.2942 13.3333C19.2942 11.4924 17.7439 10 15.8314 10C13.919 10 12.3687 11.4924 12.3687 13.3333C12.3687 15.1743 13.919 16.6667 15.8314 16.6667Z" fill="#F9F9F9" stroke="#6D6D6D" stroke-width="1.5" stroke-linecap="round" stroke-linejoin="round"/>
<path d="M22.767 3.3335H15.8414C7.18446 3.3335 3.72168 6.66683 3.72168 15.0002V25.0002C3.72168 33.3335 7.18446 36.6668 15.8414 36.6668H26.2298C34.8867 36.6668 38.3495 33.3335 38.3495 25.0002V16.6668" fill="#F9F9F9"/>
<path d="M22.767 3.3335H15.8414C7.18446 3.3335 3.72168 6.66683 3.72168 15.0002V25.0002C3.72168 33.3335 7.18446 36.6668 15.8414 36.6668H26.2298C34.8867 36.6668 38.3495 33.3335 38.3495 25.0002V16.6668" stroke="#6D6D6D" stroke-width="1.5" stroke-linecap="round" stroke-linejoin="round"/>
<path d="M27.5215 8.3335H37.0441" stroke="#6D6D6D" stroke-width="1.5" stroke-linecap="round"/>
<path d="M32.2822 12.9167V3.75" stroke="#6D6D6D" stroke-width="1.5" stroke-linecap="round"/>
<path d="M4.87646 31.5836L13.4122 26.0669C14.78 25.1836 16.7538 25.2836 17.9831 26.3003L18.5545 26.7836C19.9049 27.9003 22.0865 27.9003 23.437 26.7836L30.6396 20.8336C31.9901 19.7169 34.1716 19.7169 35.5221 20.8336L38.3443 23.1669" fill="#F9F9F9"/>
<path d="M4.87646 31.5836L13.4122 26.0669C14.78 25.1836 16.7538 25.2836 17.9831 26.3003L18.5545 26.7836C19.9049 27.9003 22.0865 27.9003 23.437 26.7836L30.6396 20.8336C31.9901 19.7169 34.1716 19.7169 35.5221 20.8336L38.3443 23.1669" stroke="#6D6D6D" stroke-width="1.5" stroke-linecap="round" stroke-linejoin="round"/>
</svg>
