<svg width="20" height="20" viewBox="0 0 20 20" fill="none" xmlns="http://www.w3.org/2000/svg">
<path d="M14.1666 15.3583H10.8333L7.12495 17.825C6.57495 18.1916 5.83329 17.8 5.83329 17.1333V15.3583C3.33329 15.3583 1.66663 13.6917 1.66663 11.1917V6.19161C1.66663 3.69161 3.33329 2.02494 5.83329 2.02494H14.1666C16.6666 2.02494 18.3333 3.69161 18.3333 6.19161V11.1917C18.3333 13.6917 16.6666 15.3583 14.1666 15.3583Z" stroke="#1B1B1B" stroke-width="1.5" stroke-miterlimit="10" stroke-linecap="round" stroke-linejoin="round"/>
<path d="M10.0031 9.46655V9.29159C10.0031 8.72492 10.3531 8.4249 10.7031 8.18324C11.0448 7.9499 11.3864 7.64991 11.3864 7.09991C11.3864 6.33325 10.7697 5.71655 10.0031 5.71655C9.2364 5.71655 8.61975 6.33325 8.61975 7.09991" stroke="#1B1B1B" stroke-width="1.5" stroke-linecap="round" stroke-linejoin="round"/>
<path d="M9.99629 11.4583H10.0038" stroke="#1B1B1B" stroke-width="1.5" stroke-linecap="round" stroke-linejoin="round"/>
</svg>
