<svg width="23" height="20" viewBox="0 0 23 20" fill="none" xmlns="http://www.w3.org/2000/svg">
<path d="M11.8589 0.560005C11.7258 0.45625 11.5619 0.399902 11.3932 0.399902C11.2244 0.399902 11.0605 0.45625 10.9274 0.560005L0.149902 8.96375L1.08215 10.1428L2.3999 9.11526V18.3995C2.4007 18.7971 2.55898 19.1782 2.84012 19.4593C3.12125 19.7404 3.50232 19.8987 3.8999 19.8995H18.8999C19.2975 19.8987 19.6786 19.7404 19.9597 19.4593C20.2408 19.1782 20.3991 18.7971 20.3999 18.3995V9.122L21.7177 10.1495L22.6499 8.9705L11.8589 0.560005ZM12.8999 18.3995H9.8999V12.3995H12.8999V18.3995ZM14.3999 18.3995V12.3995C14.3995 12.0018 14.2413 11.6205 13.9601 11.3393C13.6789 11.0581 13.2976 10.8999 12.8999 10.8995H9.8999C9.5022 10.8999 9.1209 11.0581 8.83968 11.3393C8.55846 11.6205 8.4003 12.0018 8.3999 12.3995V18.3995H3.8999V7.946L11.3999 2.10351L18.8999 7.9535V18.3995H14.3999Z" fill="#333333"/>
</svg>
