<svg width="32" height="32" viewBox="0 0 32 32" fill="none" xmlns="http://www.w3.org/2000/svg">
<path d="M12.0026 13.3333C13.4754 13.3333 14.6693 12.1394 14.6693 10.6667C14.6693 9.19391 13.4754 8 12.0026 8C10.5298 8 9.33594 9.19391 9.33594 10.6667C9.33594 12.1394 10.5298 13.3333 12.0026 13.3333Z" stroke="#777777" stroke-width="1.5" stroke-linecap="round" stroke-linejoin="round"/>
<path d="M17.3307 2.66797H11.9974C5.33073 2.66797 2.66406 5.33464 2.66406 12.0013V20.0013C2.66406 26.668 5.33073 29.3346 11.9974 29.3346H19.9974C26.6641 29.3346 29.3307 26.668 29.3307 20.0013V13.3346" stroke="#777777" stroke-width="1.5" stroke-linecap="round" stroke-linejoin="round"/>
<path d="M21 6.66797H28.3333" stroke="#777777" stroke-width="1.5" stroke-linecap="round"/>
<path d="M24.6641 10.3333V3" stroke="#777777" stroke-width="1.5" stroke-linecap="round"/>
<path d="M3.5625 25.2661L10.1358 20.8528C11.1892 20.1461 12.7092 20.2261 13.6558 21.0394L14.0958 21.4261C15.1358 22.3194 16.8158 22.3194 17.8558 21.4261L23.4025 16.6661C24.4425 15.7728 26.1225 15.7728 27.1625 16.6661L29.3358 18.5328" stroke="#777777" stroke-width="1.5" stroke-linecap="round" stroke-linejoin="round"/>
</svg>
