<svg width="30" height="30" viewBox="0 0 30 30" fill="none" xmlns="http://www.w3.org/2000/svg">
<rect width="30" height="30" rx="15" fill="#6D6D6D"/>
<path d="M11.3059 8.3567C11.11 8.55264 11 8.81835 11 9.09541C11 9.37247 11.11 9.63818 11.3059 9.83412L16.4779 15.0062L11.3059 20.1782C11.1156 20.3752 11.0103 20.6392 11.0127 20.9131C11.015 21.1871 11.1249 21.4492 11.3186 21.6429C11.5124 21.8366 11.7744 21.9465 12.0484 21.9489C12.3223 21.9512 12.5863 21.8459 12.7833 21.6556L18.6941 15.7449C18.89 15.5489 19 15.2832 19 15.0062C19 14.7291 18.89 14.4634 18.6941 14.2674L12.7833 8.3567C12.5874 8.16082 12.3217 8.05078 12.0446 8.05078C11.7676 8.05078 11.5019 8.16082 11.3059 8.3567Z" fill="#F9F9F9"/>
</svg>
