<svg width="30" height="30" viewBox="0 0 30 30" fill="none" xmlns="http://www.w3.org/2000/svg">
<rect width="30" height="30" rx="15" fill="#6D6D6D"/>
<path d="M18.6941 22.9475C18.89 22.7131 19 22.3952 19 22.0637C19 21.7323 18.89 21.4144 18.6941 21.18L13.5221 14.9925L18.6941 8.80499C18.8844 8.56924 18.9897 8.25349 18.9873 7.92574C18.985 7.59799 18.8751 7.28448 18.6814 7.05272C18.4876 6.82096 18.2256 6.6895 17.9516 6.68665C17.6777 6.6838 17.4137 6.8098 17.2167 7.03749L11.3059 14.1087C11.11 14.3432 11 14.661 11 14.9925C11 15.3239 11.11 15.6418 11.3059 15.8762L17.2167 22.9475C17.4126 23.1818 17.6783 23.3135 17.9554 23.3135C18.2324 23.3135 18.4981 23.1818 18.6941 22.9475Z" fill="#F9F9F9"/>
</svg>
