<svg width="20" height="20" viewBox="0 0 20 20" fill="none" xmlns="http://www.w3.org/2000/svg">
<path d="M3.62293 15.2923C4.47293 14.6615 5.39889 14.1635 6.4008 13.7981C7.40272 13.4327 8.46906 13.25 9.59983 13.25C10.7306 13.25 11.7969 13.4327 12.7989 13.7981C13.8008 14.1635 14.7267 14.6615 15.5767 15.2923C16.1985 14.609 16.6912 13.8179 17.0546 12.9192C17.4181 12.0205 17.5998 11.0474 17.5998 9.99998C17.5998 7.78331 16.8207 5.89581 15.2623 4.33748C13.704 2.77914 11.8165 1.99998 9.59983 1.99998C7.38316 1.99998 5.49566 2.77914 3.93733 4.33748C2.379 5.89581 1.59983 7.78331 1.59983 9.99998C1.59983 11.0474 1.78156 12.0205 2.14503 12.9192C2.5085 13.8179 3.00113 14.609 3.62293 15.2923ZM9.60013 10.75C8.68711 10.75 7.91715 10.4366 7.29023 9.80988C6.66331 9.18314 6.34985 8.41328 6.34985 7.50028C6.34985 6.58726 6.66321 5.81729 7.28993 5.19038C7.91666 4.56346 8.68653 4.25 9.59953 4.25C10.5125 4.25 11.2825 4.56336 11.9094 5.19008C12.5363 5.81681 12.8498 6.58668 12.8498 7.49968C12.8498 8.41269 12.5364 9.18266 11.9097 9.80958C11.283 10.4365 10.5131 10.75 9.60013 10.75ZM9.59983 19.5C8.2806 19.5 7.0431 19.2519 5.88735 18.7557C4.73159 18.2596 3.72614 17.5839 2.871 16.7288C2.01589 15.8737 1.34025 14.8682 0.844104 13.7125C0.347937 12.5567 0.0998535 11.3192 0.0998535 9.99998C0.0998535 8.68074 0.347937 7.44325 0.844104 6.2875C1.34025 5.13173 2.01589 4.12628 2.871 3.27115C3.72614 2.41603 4.73159 1.7404 5.88735 1.24425C7.0431 0.748084 8.2806 0.5 9.59983 0.5C10.9191 0.5 12.1566 0.748084 13.3123 1.24425C14.4681 1.7404 15.4735 2.41603 16.3287 3.27115C17.1838 4.12628 17.8594 5.13173 18.3556 6.2875C18.8517 7.44325 19.0998 8.68074 19.0998 9.99998C19.0998 11.3192 18.8517 12.5567 18.3556 13.7125C17.8594 14.8682 17.1838 15.8737 16.3287 16.7288C15.4735 17.5839 14.4681 18.2596 13.3123 18.7557C12.1566 19.2519 10.9191 19.5 9.59983 19.5ZM9.59983 18C10.5024 18 11.3726 17.8548 12.2104 17.5644C13.0482 17.274 13.7922 16.8679 14.4422 16.3461C13.7922 15.8436 13.0579 15.4519 12.2393 15.1711C11.4207 14.8903 10.5409 14.75 9.59983 14.75C8.6588 14.75 7.77738 14.8887 6.95558 15.1663C6.13378 15.4439 5.40109 15.8371 4.7575 16.3461C5.4075 16.8679 6.15142 17.274 6.98925 17.5644C7.82707 17.8548 8.69726 18 9.59983 18ZM9.59983 9.25C10.0973 9.25 10.5133 9.08269 10.8479 8.74808C11.1825 8.41344 11.3499 7.99741 11.3499 7.49998C11.3499 7.00254 11.1825 6.58651 10.8479 6.25188C10.5133 5.91726 10.0973 5.74995 9.59983 5.74995C9.1024 5.74995 8.68636 5.91726 8.35173 6.25188C8.01711 6.58651 7.8498 7.00254 7.8498 7.49998C7.8498 7.99741 8.01711 8.41344 8.35173 8.74808C8.68636 9.08269 9.1024 9.25 9.59983 9.25Z" fill="#474747"/>
</svg>
