<svg width="20" height="20" viewBox="0 0 20 20" fill="none" xmlns="http://www.w3.org/2000/svg">
<path d="M4.0498 11.75H11.5498V10.25H4.0498V11.75ZM4.0498 8.74995H15.5498V7.25H4.0498V8.74995ZM4.0498 5.74995H15.5498V4.25H4.0498V5.74995ZM0.299805 19.0384V2.3077C0.299805 1.80257 0.474805 1.375 0.824805 1.025C1.1748 0.675 1.60237 0.5 2.1075 0.5H17.4921C17.9972 0.5 18.4248 0.675 18.7748 1.025C19.1248 1.375 19.2998 1.80257 19.2998 2.3077V13.6923C19.2998 14.1974 19.1248 14.625 18.7748 14.975C18.4248 15.325 17.9972 15.5 17.4921 15.5H3.83825L0.299805 19.0384ZM3.19981 14H17.4921C17.569 14 17.6395 13.9679 17.7036 13.9038C17.7677 13.8397 17.7998 13.7692 17.7998 13.6923V2.3077C17.7998 2.23077 17.7677 2.16024 17.7036 2.09613C17.6395 2.03203 17.569 1.99998 17.4921 1.99998H2.1075C2.03057 1.99998 1.96005 2.03203 1.89593 2.09613C1.83183 2.16024 1.79978 2.23077 1.79978 2.3077V15.3846L3.19981 14Z" fill="#474747"/>
</svg>
