<svg width="129" height="120" viewBox="0 0 129 120" fill="none" xmlns="http://www.w3.org/2000/svg">
<path d="M86.8479 45.2491C77.7131 45.2491 68.4253 44.8886 59.7276 42.4628C51.0298 40.0371 43.4029 35.5024 36.377 30.192C31.8096 26.7282 27.6356 23.9856 21.7132 24.4008C15.908 24.707 10.3561 26.8757 5.88029 30.5854C-1.67013 37.1414 -0.522817 49.4122 2.49298 58.0116C7.0276 70.9599 20.8063 79.9527 32.5745 85.8203C46.1346 92.595 60.9841 96.5286 75.9648 98.7905C89.077 100.779 105.871 102.221 117.213 93.6767C127.638 85.8203 130.5 67.8895 127.944 55.7716C127.308 52.2123 125.402 49.0049 122.579 46.7461C115.268 41.4029 104.342 44.976 96.1247 45.1508C93.0652 45.1617 89.962 45.2382 86.8479 45.2491Z" fill="#F2F2F2"/>
<path d="M112.187 13.1121H17.7028C14.9993 13.1121 12.8076 15.3037 12.8076 18.0073V85.5895C12.8076 88.2931 14.9993 90.4847 17.7028 90.4847H112.187C114.89 90.4847 117.082 88.2931 117.082 85.5895V18.0073C117.082 15.3037 114.89 13.1121 112.187 13.1121Z" fill="white" stroke="#BABABA" stroke-linecap="round" stroke-linejoin="round"/>
<path d="M16.6865 83.2869H109.969" stroke="#F2F2F2" stroke-linecap="round" stroke-linejoin="round"/>
<path d="M16.6865 71.0457H109.969" stroke="#F2F2F2" stroke-linecap="round" stroke-linejoin="round"/>
<path d="M16.6865 58.8213H109.969" stroke="#F2F2F2" stroke-linecap="round" stroke-linejoin="round"/>
<path d="M16.6865 46.584H109.969" stroke="#F2F2F2" stroke-linecap="round" stroke-linejoin="round"/>
<path d="M16.6865 34.3425H109.969" stroke="#F2F2F2" stroke-linecap="round" stroke-linejoin="round"/>
<path d="M16.6865 22.1055H109.969" stroke="#F2F2F2" stroke-linecap="round" stroke-linejoin="round"/>
<path d="M34.946 30.0701H28.8052C27.3206 30.0701 26.1172 31.2735 26.1172 32.7581V81.2512C26.1172 82.7357 27.3206 83.9392 28.8052 83.9392H34.946C36.4306 83.9392 37.634 82.7357 37.634 81.2512V32.7581C37.634 31.2735 36.4306 30.0701 34.946 30.0701Z" fill="#D2D2D2"/>
<path d="M56.9958 51.0828H50.855C49.3704 51.0828 48.167 52.2862 48.167 53.7708V81.2517C48.167 82.7362 49.3704 83.9397 50.855 83.9397H56.9958C58.4804 83.9397 59.6838 82.7362 59.6838 81.2517V53.7708C59.6838 52.2862 58.4804 51.0828 56.9958 51.0828Z" fill="#D2D2D2"/>
<path d="M79.0349 35.7085H72.894C71.4095 35.7085 70.2061 36.912 70.2061 38.3965V81.2405C70.2061 82.725 71.4095 83.9285 72.894 83.9285H79.0349C80.5194 83.9285 81.7229 82.725 81.7229 81.2405V38.3965C81.7229 36.912 80.5194 35.7085 79.0349 35.7085Z" fill="#D2D2D2"/>
<path d="M101.074 58.6035H94.9331C93.4486 58.6035 92.2451 59.807 92.2451 61.2915V81.2438C92.2451 82.7284 93.4486 83.9318 94.9331 83.9318H101.074C102.559 83.9318 103.762 82.7284 103.762 81.2438V61.2915C103.762 59.807 102.559 58.6035 101.074 58.6035Z" fill="#D2D2D2"/>
<path d="M26.6631 54.2838L33.0662 54.0325L50.9971 72.466L68.1522 56.8406L86.8479 62.9924L104.888 51.4756" stroke="#BABABA" stroke-width="1.1" stroke-linecap="round" stroke-linejoin="round"/>
<path d="M38.7041 96.6809V101.379" stroke="#BABABA" stroke-linecap="round" stroke-linejoin="round"/>
<path d="M36.3555 99.0327H41.054" stroke="#BABABA" stroke-linecap="round" stroke-linejoin="round"/>
<path d="M122.742 34.8462V39.5447" stroke="#BABABA" stroke-linecap="round" stroke-linejoin="round"/>
<path d="M120.393 37.198H125.091" stroke="#BABABA" stroke-linecap="round" stroke-linejoin="round"/>
<path d="M4.83105 12.0879V16.7755" stroke="#BABABA" stroke-linecap="round" stroke-linejoin="round"/>
<path d="M2.48242 14.4353H7.18095" stroke="#BABABA" stroke-linecap="round" stroke-linejoin="round"/>
<path d="M6.80911 76.1707C7.40051 76.1707 7.87994 75.6913 7.87994 75.0999C7.87994 74.5085 7.40051 74.0291 6.80911 74.0291C6.21771 74.0291 5.73828 74.5085 5.73828 75.0999C5.73828 75.6913 6.21771 76.1707 6.80911 76.1707Z" fill="#CFCFCF"/>
<path d="M58.0777 2.14165C58.6691 2.14165 59.1485 1.66223 59.1485 1.07083C59.1485 0.479427 58.6691 0 58.0777 0C57.4863 0 57.0068 0.479427 57.0068 1.07083C57.0068 1.66223 57.4863 2.14165 58.0777 2.14165Z" fill="#CFCFCF"/>
<path d="M69.0809 120C91.1981 120 109.128 118.885 109.128 117.509C109.128 116.133 91.1981 115.017 69.0809 115.017C46.9637 115.017 29.0342 116.133 29.0342 117.509C29.0342 118.885 46.9637 120 69.0809 120Z" fill="#F2F2F2"/>
<path d="M113.204 26.9599C120.21 26.9599 125.89 21.2802 125.89 14.2739C125.89 7.26761 120.21 1.58789 113.204 1.58789C106.197 1.58789 100.518 7.26761 100.518 14.2739C100.518 21.2802 106.197 26.9599 113.204 26.9599Z" fill="#D2D2D2"/>
<path d="M107.686 8.75415L118.711 19.7902" stroke="white" stroke-width="1.1" stroke-linecap="round" stroke-linejoin="round"/>
<path d="M118.711 8.75415L107.686 19.7902" stroke="white" stroke-width="1.1" stroke-linecap="round" stroke-linejoin="round"/>
</svg>
