<svg width="20" height="20" viewBox="0 0 20 20" fill="none" xmlns="http://www.w3.org/2000/svg">
<path d="M16.4938 12.4417C14.7771 14.1501 12.3188 14.6751 10.1604 14.0001L6.23545 17.9167C5.95212 18.2084 5.39378 18.3834 4.99378 18.3251L3.17712 18.0751C2.57712 17.9917 2.01878 17.4251 1.92712 16.8251L1.67712 15.0084C1.61878 14.6084 1.81045 14.0501 2.08545 13.7667L6.00212 9.85006C5.33545 7.68339 5.85212 5.22506 7.56878 3.51672C10.0271 1.05839 14.0188 1.05839 16.4855 3.51672C18.9521 5.97506 18.9521 9.98339 16.4938 12.4417Z" stroke="#1B1B1B" stroke-width="1.5" stroke-miterlimit="10" stroke-linecap="round" stroke-linejoin="round"/>
<path d="M5.74219 14.575L7.65885 16.4917" stroke="#1B1B1B" stroke-width="1.5" stroke-miterlimit="10" stroke-linecap="round" stroke-linejoin="round"/>
<path d="M12.0834 9.16667C12.7737 9.16667 13.3334 8.60703 13.3334 7.91667C13.3334 7.22632 12.7737 6.66667 12.0834 6.66667C11.393 6.66667 10.8334 7.22632 10.8334 7.91667C10.8334 8.60703 11.393 9.16667 12.0834 9.16667Z" stroke="#1B1B1B" stroke-width="1.5" stroke-linecap="round" stroke-linejoin="round"/>
</svg>
