<svg width="28" height="28" viewBox="0 0 28 28" fill="none" xmlns="http://www.w3.org/2000/svg">
<rect width="28" height="28" rx="14" fill="#F8F9FF"/>
<path d="M11.917 15.4583C11.917 16.2666 12.542 16.9166 13.3087 16.9166H14.8753C15.542 16.9166 16.0837 16.3499 16.0837 15.6416C16.0837 14.8833 15.7503 14.6083 15.2587 14.4333L12.7503 13.5583C12.2587 13.3833 11.9253 13.1166 11.9253 12.35C11.9253 11.65 12.467 11.075 13.1337 11.075H14.7003C15.467 11.075 16.092 11.725 16.092 12.5333" stroke="#3088EF" stroke-width="1.5" stroke-linecap="round" stroke-linejoin="round"/>
<path d="M14 10.25V17.75" stroke="#3088EF" stroke-width="1.5" stroke-linecap="round" stroke-linejoin="round"/>
<path d="M22.3337 14.0001C22.3337 18.6001 18.6003 22.3334 14.0003 22.3334C9.40033 22.3334 5.66699 18.6001 5.66699 14.0001C5.66699 9.40008 9.40033 5.66675 14.0003 5.66675" stroke="#3088EF" stroke-width="1.5" stroke-linecap="round" stroke-linejoin="round"/>
<path d="M18.167 6.5V9.83333H21.5003" stroke="#3088EF" stroke-width="1.5" stroke-linecap="round" stroke-linejoin="round"/>
<path d="M22.3337 5.66675L18.167 9.83341" stroke="#3088EF" stroke-width="1.5" stroke-linecap="round" stroke-linejoin="round"/>
</svg>
