<svg width="28" height="28" viewBox="0 0 28 28" fill="none" xmlns="http://www.w3.org/2000/svg">
<rect width="28" height="28" rx="14" fill="#87D333"/>
<path d="M17.333 20H10.6663C7.99967 20 7.33301 19.3333 7.33301 16.6667V11.3333C7.33301 8.66667 7.99967 8 10.6663 8H17.333C19.9997 8 20.6663 8.66667 20.6663 11.3333V16.6667C20.6663 19.3333 19.9997 20 17.333 20Z" stroke="#F7FBF1" stroke-width="1.5" stroke-linecap="round" stroke-linejoin="round"/>
<path d="M15.333 11.3335H18.6663" stroke="#F7FBF1" stroke-width="1.5" stroke-linecap="round" stroke-linejoin="round"/>
<path d="M16 14H18.6667" stroke="#F7FBF1" stroke-width="1.5" stroke-linecap="round" stroke-linejoin="round"/>
<path d="M17.333 16.6665H18.6663" stroke="#F7FBF1" stroke-width="1.5" stroke-linecap="round" stroke-linejoin="round"/>
<path d="M11.6666 13.5266C12.3331 13.5266 12.8733 12.9864 12.8733 12.3199C12.8733 11.6535 12.3331 11.1133 11.6666 11.1133C11.0002 11.1133 10.46 11.6535 10.46 12.3199C10.46 12.9864 11.0002 13.5266 11.6666 13.5266Z" stroke="#F7FBF1" stroke-width="1.5" stroke-linecap="round" stroke-linejoin="round"/>
<path d="M13.9997 16.8867C13.9063 15.92 13.1397 15.16 12.173 15.0733C11.8397 15.04 11.4997 15.04 11.1597 15.0733C10.193 15.1667 9.42634 15.92 9.33301 16.8867" stroke="#F7FBF1" stroke-width="1.5" stroke-linecap="round" stroke-linejoin="round"/>
</svg>
