<svg width="20" height="20" viewBox="0 0 20 20" fill="none" xmlns="http://www.w3.org/2000/svg">
<path d="M11.0817 6.75842L12.1817 8.95842C12.3317 9.25842 12.7317 9.55842 13.065 9.60842L15.0567 9.94175C16.3317 10.1584 16.6317 11.0751 15.715 11.9918L14.165 13.5418C13.9067 13.8001 13.7567 14.3084 13.84 14.6751L14.2817 16.6001C14.6317 18.1168 13.8234 18.7084 12.4817 17.9168L10.615 16.8084C10.2733 16.6084 9.72335 16.6084 9.38169 16.8084L7.515 17.9168C6.17333 18.7084 5.365 18.1168 5.715 16.6001L6.15669 14.6751C6.24002 14.3168 6.09001 13.8084 5.83168 13.5418L4.28169 11.9918C3.36502 11.0751 3.665 10.1501 4.94 9.94175L6.93168 9.60842C7.26502 9.55008 7.66501 9.25842 7.81501 8.95842L8.91502 6.75842C9.50669 5.56675 10.49 5.56675 11.0817 6.75842Z" stroke="#1B1B1B" stroke-width="1.5" stroke-linecap="round" stroke-linejoin="round"/>
<path d="M5 7.50001V1.66667" stroke="#1B1B1B" stroke-width="1.5" stroke-linecap="round" stroke-linejoin="round"/>
<path d="M15 7.50001V1.66667" stroke="#1B1B1B" stroke-width="1.5" stroke-linecap="round" stroke-linejoin="round"/>
<path d="M10 3.33334V1.66667" stroke="#1B1B1B" stroke-width="1.5" stroke-linecap="round" stroke-linejoin="round"/>
</svg>
