<svg width="19" height="18" viewBox="0 0 19 18" fill="none" xmlns="http://www.w3.org/2000/svg">
<path d="M16.7997 18L10.4997 11.7C9.99971 12.1 9.42471 12.4167 8.77471 12.65C8.12471 12.8833 7.43304 13 6.69971 13C4.88304 13 3.34554 12.3708 2.08721 11.1125C0.828874 9.85417 0.199707 8.31667 0.199707 6.5C0.199707 4.68333 0.828874 3.14583 2.08721 1.8875C3.34554 0.629167 4.88304 0 6.69971 0C8.51637 0 10.0539 0.629167 11.3122 1.8875C12.5705 3.14583 13.1997 4.68333 13.1997 6.5C13.1997 7.23333 13.083 7.925 12.8497 8.575C12.6164 9.225 12.2997 9.8 11.8997 10.3L18.1997 16.6L16.7997 18ZM6.69971 11C7.94971 11 9.01221 10.5625 9.88721 9.6875C10.7622 8.8125 11.1997 7.75 11.1997 6.5C11.1997 5.25 10.7622 4.1875 9.88721 3.3125C9.01221 2.4375 7.94971 2 6.69971 2C5.44971 2 4.38721 2.4375 3.51221 3.3125C2.63721 4.1875 2.19971 5.25 2.19971 6.5C2.19971 7.75 2.63721 8.8125 3.51221 9.6875C4.38721 10.5625 5.44971 11 6.69971 11Z" fill="#1C1B1F"/>
</svg>
