<svg width="20" height="20" viewBox="0 0 20 20" fill="none" xmlns="http://www.w3.org/2000/svg">
<path d="M7.50326 18.3332H12.5033C16.6699 18.3332 18.3366 16.6666 18.3366 12.4999V7.4999C18.3366 3.33323 16.6699 1.66656 12.5033 1.66656H7.50326C3.33659 1.66656 1.66992 3.33323 1.66992 7.4999V12.4999C1.66992 16.6666 3.33659 18.3332 7.50326 18.3332Z" stroke="#1B1B1B" stroke-width="1.5" stroke-linecap="round" stroke-linejoin="round"/>
<path d="M12.9785 15.4167V12.1667" stroke="#1B1B1B" stroke-width="1.5" stroke-miterlimit="10" stroke-linecap="round" stroke-linejoin="round"/>
<path d="M12.9785 6.20843V4.58344" stroke="#1B1B1B" stroke-width="1.5" stroke-miterlimit="10" stroke-linecap="round" stroke-linejoin="round"/>
<path d="M12.9772 10.5415C14.1738 10.5415 15.1439 9.57147 15.1439 8.37486C15.1439 7.17824 14.1738 6.20819 12.9772 6.20819C11.7806 6.20819 10.8105 7.17824 10.8105 8.37486C10.8105 9.57147 11.7806 10.5415 12.9772 10.5415Z" stroke="#1B1B1B" stroke-width="1.5" stroke-miterlimit="10" stroke-linecap="round" stroke-linejoin="round"/>
<path d="M7.02148 15.4168V13.7918" stroke="#1B1B1B" stroke-width="1.5" stroke-miterlimit="10" stroke-linecap="round" stroke-linejoin="round"/>
<path d="M7.02148 7.83343V4.58344" stroke="#1B1B1B" stroke-width="1.5" stroke-miterlimit="10" stroke-linecap="round" stroke-linejoin="round"/>
<path d="M7.02018 13.7916C8.2168 13.7916 9.18685 12.8216 9.18685 11.625C9.18685 10.4284 8.2168 9.45831 7.02018 9.45831C5.82357 9.45831 4.85352 10.4284 4.85352 11.625C4.85352 12.8216 5.82357 13.7916 7.02018 13.7916Z" stroke="#1B1B1B" stroke-width="1.5" stroke-miterlimit="10" stroke-linecap="round" stroke-linejoin="round"/>
</svg>
