<svg width="28" height="28" viewBox="0 0 28 28" fill="none" xmlns="http://www.w3.org/2000/svg">
<rect width="28" height="28" rx="14" fill="#F8F9FF"/>
<path d="M19.0482 17.3092C18.4378 17.3092 17.8916 17.5502 17.4739 17.9277L11.747 14.5944C11.7871 14.4096 11.8193 14.2249 11.8193 14.0321C11.8193 13.8394 11.7871 13.6546 11.747 13.4699L17.4096 10.1687C17.8434 10.5703 18.4137 10.8193 19.0482 10.8193C20.3815 10.8193 21.4578 9.74297 21.4578 8.40964C21.4578 7.07631 20.3815 6 19.0482 6C17.7149 6 16.6386 7.07631 16.6386 8.40964C16.6386 8.60241 16.6707 8.78715 16.7108 8.97189L11.0482 12.2731C10.6145 11.8715 10.0442 11.6225 9.40964 11.6225C8.07631 11.6225 7 12.6988 7 14.0321C7 15.3655 8.07631 16.4418 9.40964 16.4418C10.0442 16.4418 10.6145 16.1928 11.0482 15.7912L16.7671 19.1325C16.7269 19.3012 16.7028 19.4779 16.7028 19.6546C16.7028 20.9478 17.755 22 19.0482 22C20.3414 22 21.3936 20.9478 21.3936 19.6546C21.3936 18.3614 20.3414 17.3092 19.0482 17.3092Z" fill="#3088EF"/>
</svg>
