<svg width="28" height="28" viewBox="0 0 28 28" fill="none" xmlns="http://www.w3.org/2000/svg">
<rect width="28" height="28" rx="14" fill="#F8F9FF"/>
<path d="M6.50781 13.3489V17.0905C6.50781 20.8322 8.00781 22.3322 11.7495 22.3322H16.2411C19.9828 22.3322 21.4828 20.8322 21.4828 17.0905V13.3489" stroke="#3088EF" stroke-width="1.5" stroke-linecap="round" stroke-linejoin="round"/>
<path d="M13.9997 14.0001C15.5247 14.0001 16.6497 12.7584 16.4997 11.2334L15.9497 5.66675H12.0581L11.4997 11.2334C11.3497 12.7584 12.4747 14.0001 13.9997 14.0001Z" stroke="#3088EF" stroke-width="1.5" stroke-linecap="round" stroke-linejoin="round"/>
<path d="M19.2577 14.0001C20.941 14.0001 22.1743 12.6334 22.0077 10.9584L21.7743 8.66675C21.4743 6.50008 20.641 5.66675 18.4577 5.66675H15.916L16.4993 11.5084C16.641 12.8834 17.8827 14.0001 19.2577 14.0001Z" stroke="#3088EF" stroke-width="1.5" stroke-linecap="round" stroke-linejoin="round"/>
<path d="M8.69966 14.0001C10.0747 14.0001 11.3163 12.8834 11.4497 11.5084L11.633 9.66675L12.033 5.66675H9.49133C7.30799 5.66675 6.47466 6.50008 6.17466 8.66675L5.94966 10.9584C5.78299 12.6334 7.01632 14.0001 8.69966 14.0001Z" stroke="#3088EF" stroke-width="1.5" stroke-linecap="round" stroke-linejoin="round"/>
<path d="M14.0003 18.1667C12.6087 18.1667 11.917 18.8584 11.917 20.2501V22.3334H16.0837V20.2501C16.0837 18.8584 15.392 18.1667 14.0003 18.1667Z" stroke="#3088EF" stroke-width="1.5" stroke-linecap="round" stroke-linejoin="round"/>
</svg>
