<svg width="28" height="28" viewBox="0 0 28 28" fill="none" xmlns="http://www.w3.org/2000/svg">
<rect width="28" height="28" rx="14" fill="#F8F9FF"/>
<path d="M22.333 9.00008V11.0167C22.333 12.3334 21.4997 13.1667 20.183 13.1667H17.333V7.34175C17.333 6.41675 18.0914 5.66675 19.0164 5.66675C19.9247 5.67508 20.758 6.04175 21.358 6.64175C21.958 7.25008 22.333 8.08341 22.333 9.00008Z" stroke="#3088EF" stroke-width="1.5" stroke-miterlimit="10" stroke-linecap="round" stroke-linejoin="round"/>
<path d="M5.66699 9.83341V21.5001C5.66699 22.1917 6.45031 22.5834 7.00031 22.1667L8.42532 21.1001C8.75866 20.8501 9.22533 20.8834 9.52533 21.1834L10.9086 22.5751C11.2336 22.9001 11.767 22.9001 12.092 22.5751L13.492 21.1751C13.7837 20.8834 14.2503 20.8501 14.5753 21.1001L16.0003 22.1667C16.5503 22.5751 17.3337 22.1834 17.3337 21.5001V7.33341C17.3337 6.41675 18.0837 5.66675 19.0003 5.66675H9.83366H9.00033C6.50033 5.66675 5.66699 7.15841 5.66699 9.00008V9.83341Z" stroke="#3088EF" stroke-width="1.5" stroke-miterlimit="10" stroke-linecap="round" stroke-linejoin="round"/>
<path d="M9 11.5H14" stroke="#3088EF" stroke-width="1.5" stroke-linecap="round" stroke-linejoin="round"/>
<path d="M9.625 14.8333H13.375" stroke="#3088EF" stroke-width="1.5" stroke-linecap="round" stroke-linejoin="round"/>
</svg>
