<svg width="189" height="150" viewBox="0 0 189 150" fill="none" xmlns="http://www.w3.org/2000/svg">
<path d="M88.0482 71.7612L87.5911 72.7524C87.5037 72.9418 87.3241 73.0723 87.1168 73.0969L86.0329 73.2253C85.5246 73.2858 85.3204 73.9141 85.6963 74.2617L86.4976 75.0027C86.6508 75.1446 86.7195 75.3556 86.6787 75.5602L86.466 76.6308C86.3662 77.1328 86.9007 77.5213 87.3475 77.2711L88.3 76.738C88.4821 76.6362 88.7041 76.6362 88.8861 76.738L89.8384 77.2711C90.2853 77.5213 90.8197 77.1328 90.72 76.6308L90.5074 75.5602C90.4666 75.3556 90.5352 75.1446 90.6885 75.0027L91.4898 74.2617C91.8658 73.9141 91.6615 73.2858 91.153 73.2253L90.0691 73.0969C89.862 73.0723 89.6824 72.9418 89.5951 72.7524L89.1379 71.7612C89.0307 71.5288 88.8118 71.4126 88.593 71.4126C88.3743 71.4126 88.1554 71.5288 88.0482 71.7612Z" fill="#F3D960"/>
<path d="M88.0482 71.7612L87.5911 72.7524C87.5037 72.9418 87.3241 73.0723 87.1168 73.0969L86.0329 73.2253C85.5246 73.2858 85.3204 73.9141 85.6963 74.2617L86.4976 75.0027C86.6508 75.1446 86.7195 75.3556 86.6787 75.5602L86.466 76.6308C86.3662 77.1328 86.9007 77.5213 87.3475 77.2711L88.3 76.738C88.4821 76.6362 88.7041 76.6362 88.8861 76.738L89.8384 77.2711C90.2853 77.5213 90.8197 77.1328 90.72 76.6308L90.5074 75.5602C90.4666 75.3556 90.5352 75.1446 90.6885 75.0027L91.4898 74.2617C91.8658 73.9141 91.6615 73.2858 91.153 73.2253L90.0691 73.0969C89.862 73.0723 89.6824 72.9418 89.5951 72.7524L89.1379 71.7612C89.0307 71.5288 88.8118 71.4126 88.593 71.4126C88.3743 71.4126 88.1554 71.5288 88.0482 71.7612Z" fill="url(#paint0_linear_92_10519)"/>
<path d="M86.5888 75.1111L86.6785 74.6598C86.7192 74.4552 86.6506 74.2441 86.4973 74.1025L85.7061 73.3708C85.4581 73.5909 85.4169 74.0037 85.696 74.2618L86.4973 75.0028C86.5326 75.0355 86.5629 75.0721 86.5888 75.1111Z" fill="#FABA15"/>
<path d="M91.48 73.3706L90.6887 74.1022C90.5354 74.2438 90.4669 74.455 90.5077 74.6596L90.5972 75.1109C90.6233 75.0719 90.6535 75.0353 90.6887 75.0026L91.49 74.2616C91.7693 74.0035 91.7279 73.5907 91.48 73.3706Z" fill="#FABA15"/>
<path d="M90.6307 76.1797C90.4673 76.4214 90.1342 76.5363 89.8387 76.3708L88.8863 75.8377C88.7042 75.7357 88.4822 75.7357 88.3001 75.8377L87.3478 76.3708C87.0523 76.5363 86.719 76.4214 86.5558 76.1797L86.4662 76.6309C86.3665 77.133 86.9011 77.5215 87.3478 77.2713L88.3001 76.7383C88.4822 76.6363 88.7042 76.6363 88.8863 76.7383L89.8387 77.2713C90.2854 77.5215 90.82 77.133 90.7202 76.6309L90.6307 76.1797Z" fill="#FABA15"/>
<path d="M118.967 75.4639C118.967 92.2835 105.332 104.015 88.5124 104.015C80.5599 104.015 73.3183 101.392 67.8945 96.8489C61.8473 91.7829 58.0576 84.331 58.0576 75.4639C58.0576 58.6442 71.6928 45.009 88.5124 45.009C98.3474 45.009 107.332 50.1464 112.899 57.3813C116.854 62.5196 118.967 68.4792 118.967 75.4639Z" fill="#6BCA19"/>
<path d="M80.5607 73.5822L87.1762 80.1945L96.937 69.1688" stroke="white" stroke-width="7.19888" stroke-linecap="round" stroke-linejoin="round"/>
<mask id="mask0_92_10519" style="mask-type:luminance" maskUnits="userSpaceOnUse" x="92" y="27" width="51" height="51">
<path d="M92.5 27.5H142.5V77.5H92.5V27.5Z" fill="white"/>
</mask>
<g mask="url(#mask0_92_10519)">
<path d="M134.101 38.6613C134.224 39.1739 134.26 39.7137 134.19 40.265C133.843 42.875 131.233 44.677 128.607 44.3418C122.873 43.6108 121.388 45.0741 120.715 46.4087" stroke="#FFCD46" stroke-width="4" stroke-linecap="square" stroke-dasharray="39 39"/>
</g>
<mask id="mask1_92_10519" style="mask-type:luminance" maskUnits="userSpaceOnUse" x="17" y="39" width="71" height="72">
<path d="M55.0918 110.26L17.2403 77.5912L49.9094 39.7397L87.7608 72.4088L55.0918 110.26Z" fill="white"/>
</mask>
<g mask="url(#mask1_92_10519)">
<path d="M30.8921 74.6296C31.1333 74.1606 31.4589 73.7286 31.8723 73.3572C33.8401 71.6079 36.9938 71.9494 38.7623 73.9186C42.6254 78.2184 44.7061 78.0812 46.0873 77.5104" stroke="#FFCD46" stroke-width="4" stroke-linecap="square" stroke-dasharray="39 39"/>
</g>
<mask id="mask2_92_10519" style="mask-type:luminance" maskUnits="userSpaceOnUse" x="4" y="-6" width="97" height="97">
<path d="M29.4209 90.2478L4.75219 19.4209L75.5791 -5.24784L100.248 65.5791L29.4209 90.2478Z" fill="white"/>
</mask>
<g mask="url(#mask2_92_10519)">
<path d="M24.7068 25.8119C25.3718 25.3837 26.1188 25.0667 26.9343 24.8941C30.8026 24.0976 34.6432 26.9065 35.4637 30.791C37.2571 39.2739 40.063 40.6563 42.2852 40.9507" stroke="#DAFCEE" stroke-width="6" stroke-linecap="square" stroke-dasharray="58.5 58.5"/>
</g>
<mask id="mask3_92_10519" style="mask-type:luminance" maskUnits="userSpaceOnUse" x="98" y="9" width="101" height="101">
<path d="M131.937 9.12012L198.88 42.9359L165.065 109.88L98.1207 76.0641L131.937 9.12012Z" fill="white"/>
</mask>
<g mask="url(#mask3_92_10519)">
<path d="M180.087 52.199C179.906 52.969 179.588 53.7159 179.122 54.4065C176.892 57.6665 172.178 58.3136 168.89 56.0891C161.707 51.2325 158.729 52.187 156.925 53.5189" stroke="#F88800" stroke-width="6" stroke-linecap="square" stroke-dasharray="58.5 58.5"/>
</g>
<mask id="mask4_92_10519" style="mask-type:luminance" maskUnits="userSpaceOnUse" x="103" y="57" width="58" height="58">
<path d="M130.521 57.7544L160.246 84.5196L133.481 114.245L103.755 87.4802L130.521 57.7544Z" fill="white"/>
</mask>
<g mask="url(#mask4_92_10519)">
<path d="M149.278 86.6591C149.077 87.0301 148.809 87.3701 148.472 87.6603C146.869 89.0264 144.352 88.7003 142.971 87.0955C139.953 83.5916 138.287 83.6663 137.173 84.0997" stroke="#11EE92" stroke-width="3.2" stroke-linecap="square" stroke-dasharray="31.2 31.2"/>
</g>
<mask id="mask5_92_10519" style="mask-type:luminance" maskUnits="userSpaceOnUse" x="0" y="38" width="37" height="36">
<path d="M19.4561 73.4019L0.848265 56.706L17.5441 38.0983L36.1519 54.7941L19.4561 73.4019Z" fill="white"/>
</mask>
<g mask="url(#mask5_92_10519)">
<path d="M7.70108 55.3568C7.82617 55.1248 7.99311 54.9119 8.2033 54.7302C9.20386 53.8747 10.7771 54.0757 11.6423 55.0772C13.5321 57.2639 14.5736 57.2153 15.2695 56.9433" stroke="#F88800" stroke-width="2" stroke-linecap="square" stroke-dasharray="19.5 19.5"/>
</g>
<mask id="mask6_92_10519" style="mask-type:luminance" maskUnits="userSpaceOnUse" x="21" y="72" width="51" height="51">
<path d="M60.04 122.333L21.6675 111.039L32.9611 72.6668L71.3337 83.9604L60.04 122.333Z" fill="white"/>
</mask>
<g mask="url(#mask6_92_10519)">
<path d="M30.6346 104.371C30.6554 103.949 30.7499 103.527 30.9282 103.12C31.7839 101.195 34.1944 100.402 36.1336 101.252C40.3689 103.108 41.8396 102.321 42.6572 101.448" stroke="#11EE92" stroke-width="3.2" stroke-linecap="square" stroke-dasharray="31.2 31.2"/>
</g>
<mask id="mask7_92_10519" style="mask-type:luminance" maskUnits="userSpaceOnUse" x="136" y="95" width="35" height="35">
<path d="M150.735 95.04L170.961 109.735L156.266 129.96L136.041 115.265L150.735 95.04Z" fill="white"/>
</mask>
<g mask="url(#mask7_92_10519)">
<path d="M164.284 111.781C164.183 112.025 164.039 112.254 163.849 112.456C162.941 113.41 161.356 113.372 160.392 112.464C158.288 110.484 157.257 110.639 156.592 110.981" stroke="#F88800" stroke-width="2" stroke-linecap="square" stroke-dasharray="19.34 19.34"/>
</g>
<mask id="mask8_92_10519" style="mask-type:luminance" maskUnits="userSpaceOnUse" x="56" y="-8" width="57" height="56">
<path d="M56.8428 25.6692L78.5815 -7.90802L112.159 13.8307L90.42 47.4079L56.8428 25.6692Z" fill="white"/>
</mask>
<g mask="url(#mask8_92_10519)">
<path d="M82.426 2.585C82.824 2.72474 83.2021 2.9354 83.5418 3.22221C85.1438 4.58982 85.2189 7.12644 83.8523 8.74382C80.8685 12.2765 81.2053 13.9104 81.809 14.9423" stroke="#11EE92" stroke-width="3.2" stroke-linecap="square" stroke-dasharray="31.2 31.2"/>
</g>
<mask id="mask9_92_10519" style="mask-type:luminance" maskUnits="userSpaceOnUse" x="45" y="89" width="71" height="71">
<path d="M115.722 121.418L83.5823 159.721L45.2801 127.581L77.4195 89.2791L115.722 121.418Z" fill="white"/>
</mask>
<g mask="url(#mask9_92_10519)">
<path d="M80.4304 146.112C79.9582 145.877 79.5216 145.558 79.1445 145.15C77.368 143.206 77.6656 140.048 79.61 138.253C83.8557 134.33 83.6896 132.251 83.0996 130.878" stroke="#DAFCEE" stroke-width="4" stroke-linecap="square" stroke-dasharray="39 39"/>
</g>
<defs>
<linearGradient id="paint0_linear_92_10519" x1="88.6831" y1="71.4951" x2="88.6831" y2="77.4951" gradientUnits="userSpaceOnUse">
<stop stop-color="#FFF1B1"/>
<stop offset="0.5" stop-color="#F4DA60"/>
<stop offset="1" stop-color="#E8C20E"/>
</linearGradient>
</defs>
</svg>
