<svg width="20" height="20" viewBox="0 0 20 20" fill="none" xmlns="http://www.w3.org/2000/svg">
<path d="M14.1666 17.5H5.83329C2.49996 17.5 1.66663 16.6667 1.66663 13.3333V6.66667C1.66663 3.33333 2.49996 2.5 5.83329 2.5H14.1666C17.5 2.5 18.3333 3.33333 18.3333 6.66667V13.3333C18.3333 16.6667 17.5 17.5 14.1666 17.5Z" stroke="#292D32" stroke-width="1.5" stroke-linecap="round" stroke-linejoin="round"/>
<path d="M11.6666 6.66667H15.8333" stroke="#292D32" stroke-width="1.5" stroke-linecap="round" stroke-linejoin="round"/>
<path d="M12.5 10H15.8333" stroke="#292D32" stroke-width="1.5" stroke-linecap="round" stroke-linejoin="round"/>
<path d="M14.1666 13.3333H15.8333" stroke="#292D32" stroke-width="1.5" stroke-linecap="round" stroke-linejoin="round"/>
<path d="M7.08121 9.40827C7.91424 9.40827 8.58954 8.73296 8.58954 7.89993C8.58954 7.0669 7.91424 6.3916 7.08121 6.3916C6.24818 6.3916 5.57288 7.0669 5.57288 7.89993C5.57288 8.73296 6.24818 9.40827 7.08121 9.40827Z" stroke="#292D32" stroke-width="1.5" stroke-linecap="round" stroke-linejoin="round"/>
<path d="M9.99996 13.6083C9.88329 12.4 8.92496 11.45 7.71663 11.3417C7.29996 11.3 6.87496 11.3 6.44996 11.3417C5.24163 11.4583 4.28329 12.4 4.16663 13.6083" stroke="#292D32" stroke-width="1.5" stroke-linecap="round" stroke-linejoin="round"/>
</svg>
