<svg width="28" height="28" viewBox="0 0 28 28" fill="none" xmlns="http://www.w3.org/2000/svg">
<rect width="28" height="28" rx="14" fill="#F8F9FF"/>
<path d="M18.167 21.5H9.83366C6.50033 21.5 5.66699 20.6667 5.66699 17.3333V10.6667C5.66699 7.33333 6.50033 6.5 9.83366 6.5H18.167C21.5003 6.5 22.3337 7.33333 22.3337 10.6667V17.3333C22.3337 20.6667 21.5003 21.5 18.167 21.5Z" stroke="#3088EF" stroke-width="1.5" stroke-linecap="round" stroke-linejoin="round"/>
<path d="M15.667 10.6667H19.8337" stroke="#3088EF" stroke-width="1.5" stroke-linecap="round" stroke-linejoin="round"/>
<path d="M16.5 14H19.8333" stroke="#3088EF" stroke-width="1.5" stroke-linecap="round" stroke-linejoin="round"/>
<path d="M18.167 17.3333H19.8337" stroke="#3088EF" stroke-width="1.5" stroke-linecap="round" stroke-linejoin="round"/>
<path d="M11.0835 13.4083C11.9166 13.4083 12.5919 12.733 12.5919 11.8999C12.5919 11.0669 11.9166 10.3916 11.0835 10.3916C10.2505 10.3916 9.5752 11.0669 9.5752 11.8999C9.5752 12.733 10.2505 13.4083 11.0835 13.4083Z" stroke="#3088EF" stroke-width="1.5" stroke-linecap="round" stroke-linejoin="round"/>
<path d="M14.0003 17.6082C13.8837 16.3999 12.9253 15.4499 11.717 15.3416C11.3003 15.2999 10.8753 15.2999 10.4503 15.3416C9.24199 15.4582 8.28366 16.3999 8.16699 17.6082" stroke="#3088EF" stroke-width="1.5" stroke-linecap="round" stroke-linejoin="round"/>
</svg>
