<svg width="16" height="16" viewBox="0 0 16 16" fill="none" xmlns="http://www.w3.org/2000/svg">
<path d="M11.333 14H4.66634C1.99967 14 1.33301 13.3333 1.33301 10.6667V5.33333C1.33301 2.66667 1.99967 2 4.66634 2H11.333C13.9997 2 14.6663 2.66667 14.6663 5.33333V10.6667C14.6663 13.3333 13.9997 14 11.333 14Z" stroke="#F7FBF1" stroke-width="1.5" stroke-linecap="round" stroke-linejoin="round"/>
<path d="M9.33301 5.3335H12.6663" stroke="#F7FBF1" stroke-width="1.5" stroke-linecap="round" stroke-linejoin="round"/>
<path d="M10 8H12.6667" stroke="#F7FBF1" stroke-width="1.5" stroke-linecap="round" stroke-linejoin="round"/>
<path d="M11.333 10.6665H12.6663" stroke="#F7FBF1" stroke-width="1.5" stroke-linecap="round" stroke-linejoin="round"/>
<path d="M5.66663 7.52661C6.33305 7.52661 6.87329 6.98637 6.87329 6.31995C6.87329 5.65352 6.33305 5.11328 5.66663 5.11328C5.0002 5.11328 4.45996 5.65352 4.45996 6.31995C4.45996 6.98637 5.0002 7.52661 5.66663 7.52661Z" stroke="#F7FBF1" stroke-width="1.5" stroke-linecap="round" stroke-linejoin="round"/>
<path d="M7.99967 10.8867C7.90634 9.92001 7.13967 9.16001 6.17301 9.07334C5.83967 9.04001 5.49967 9.04001 5.15967 9.07334C4.19301 9.16667 3.42634 9.92001 3.33301 10.8867" stroke="#F7FBF1" stroke-width="1.5" stroke-linecap="round" stroke-linejoin="round"/>
</svg>
